HIERARCHY
ROOT pelvis
{
	OFFSET 0.00 0.00 0.00
	CHANNELS 6 Xposition Yposition Zposition Xrotation Yrotation Zrotation
	JOINT lfemur
	{
		OFFSET 0.00000 3.26371 0.00000
		CHANNELS 3 Xrotation Yrotation Zrotation
		JOINT ltibia
		{
			OFFSET 0.00000 0.00000 -17.39272
			CHANNELS 3 Xrotation Yrotation Zrotation
			JOINT lfoot
			{
				OFFSET 0.00000 0.00000 -17.72520
				CHANNELS 3 Xrotation Yrotation Zrotation
				JOINT ltoes
				{
					OFFSET 4.21806 0.00000 0.00000
					CHANNELS 3 Xrotation Yrotation Zrotation
				}
			}
		}
	}
	JOINT rfemur
	{
		OFFSET 0.00000 -3.26371 0.00000
		CHANNELS 3 Xrotation Yrotation Zrotation
		JOINT rtibia
		{
			OFFSET 0.00000 0.00000 -17.39272
			CHANNELS 3 Xrotation Yrotation Zrotation
			JOINT rfoot
			{
				OFFSET 0.00000 0.00000 -17.72520
				CHANNELS 3 Xrotation Yrotation Zrotation
				JOINT rtoes
				{
					OFFSET 4.21806 0.00000 0.00000
					CHANNELS 3 Xrotation Yrotation Zrotation
				}
			}
		}
	}
	JOINT thorax
	{
		OFFSET -1.96850 0.00000 6.16593
		CHANNELS 6 Xposition Yposition Zposition Xrotation Yrotation Zrotation
		JOINT head
		{
			OFFSET 0.00000 0.00000 18.21355
			CHANNELS 6 Xposition Yposition Zposition Xrotation Yrotation Zrotation
		}
		JOINT lclavicle
		{
			OFFSET 0.00000 0.00000 15.13875
			CHANNELS 3 Xrotation Yrotation Zrotation
			JOINT lhumerus
			{
				OFFSET 0.00000 7.18963 -1.52650
				CHANNELS 3 Xrotation Yrotation Zrotation
				JOINT lradius
				{
					OFFSET 0.00000 0.00000 -10.12096
					CHANNELS 3 Xrotation Yrotation Zrotation
					JOINT lhand
					{
						OFFSET 0.00000 0.00000 -10.45726
						CHANNELS 3 Xrotation Yrotation Zrotation
					}
				}
			}
		}
		JOINT rclavicle
		{
			OFFSET 0.00000 0.00000 15.13875
			CHANNELS 3 Xrotation Yrotation Zrotation
			JOINT rhumerus
			{
				OFFSET 0.00000 -7.18963 -1.52650
				CHANNELS 3 Xrotation Yrotation Zrotation
				JOINT rradius
				{
					OFFSET 0.00000 0.00000 -10.12096
					CHANNELS 3 Xrotation Yrotation Zrotation
					JOINT rhand
					{
						OFFSET 0.00000 0.00000 -10.45726
						CHANNELS 3 Xrotation Yrotation Zrotation
					}
				}
			}
		}
	}
}
MOTION
Frames: 18
Frame Time: 0.008333
 58.5740 -5.5843 30.1540 -7.0428 -9.8828 -53.2838 40.0943 -19.0263 57.7463 -0.0000 35.7752 0.0000 0.0000 46.0389 -17.0476 0.0000 -17.6233 -0.0000 -13.7670 -14.7719 -20.3399 -0.0000 73.3613 0.0000 -0.0000 -20.8686 -10.9602 0.0000 -27.8287 -0.0000 56.6660 -3.8763 35.1858 -1.5607 9.3046 20.9506 55.3720 -4.9611 53.7797 -5.2919 6.1574 34.7173 -20.2323 0.0000 -11.9002 55.8231 -24.2680 33.6380 180.0000 -78.0910 158.8020 34.2695 18.4634 0.0000 8.8330 -0.0000 6.7710 -33.8898 -16.2755 42.5281 180.0000 -69.2653 143.9393 36.8844 -12.4105 0.0000
 59.0209 -5.6039 30.0132 -7.2099 -9.8704 -54.5982 40.3430 -18.3870 57.2947 -0.0000 37.1646 0.0000 0.0000 43.3965 -16.5685 0.0000 -17.7155 -0.0000 -14.3650 -14.8120 -19.5215 -0.0000 74.0118 0.0000 -0.0000 -20.9306 -11.0509 0.0000 -28.5485 -0.0000 57.0619 -3.8590 35.0546 -1.4859 9.2336 21.4612 55.7150 -4.9487 53.6331 -5.7376 6.1636 35.6013 -20.9033 0.0000 -10.3469 54.5733 -25.1898 34.7467 180.0000 -81.5678 159.6065 32.3615 16.8831 0.0000 9.1385 -0.0000 6.8465 -35.7406 -13.5515 40.9508 180.0000 -68.9564 128.8564 36.0273 -8.3919 -0.0000
 59.4417 -5.6196 29.8602 -7.3753 -9.8321 -55.5359 40.6050 -18.1082 56.7349 -0.0000 38.8668 0.0000 0.0000 40.3376 -15.8738 0.0000 -18.0221 -0.0000 -14.9151 -14.8354 -18.9587 -0.0000 74.6792 0.0000 -0.0000 -21.0880 -11.3163 0.0000 -29.0016 -0.0000 57.4496 -3.8495 34.9165 -1.4111 9.1505 21.5784 56.0534 -4.9379 53.4940 -6.0809 6.2221 36.4971 -21.3411 0.0000 -9.1605 53.6634 -25.7667 35.4739 180.0000 -84.6198 158.6854 31.0587 15.7728 0.0000 9.3517 -0.0000 6.8160 -37.0513 -11.3422 40.0936 -180.0000 -69.1555 118.5399 34.8589 -5.7747 0.0000
 59.8382 -5.6284 29.7080 -7.5575 -9.8073 -56.2068 40.8347 -18.0300 56.1887 -0.0000 40.6696 0.0000 0.0000 37.2230 -14.9956 0.0000 -18.5482 -0.0000 -15.4132 -14.8126 -18.5771 -0.0000 75.3261 0.0000 0.0000 -21.2334 -11.8666 0.0000 -29.3637 -0.0000 57.8058 -3.8366 34.7741 -1.3995 9.1494 21.4723 56.3943 -4.9282 53.3523 -6.2399 6.2000 37.2379 -21.6791 0.0000 -8.8218 53.5199 -25.3037 36.1400 180.0000 -86.8196 156.9171 30.3419 15.2441 0.0000 9.3876 0.0000 6.7501 -37.7937 -9.6789 39.8220 180.0000 -69.5517 113.2226 33.4837 -4.2980 0.0000
 60.2011 -5.6315 29.5577 -7.7270 -9.7633 -56.6553 41.0939 -18.1392 55.7053 -0.0000 42.4909 0.0000 0.0000 34.2551 -14.0420 0.0000 -19.0294 -0.0000 -15.8414 -14.7957 -18.4001 -0.0000 75.9559 0.0000 0.0000 -21.4313 -12.6600 0.0000 -29.5501 -0.0000 58.1550 -3.8188 34.6294 -1.4203 9.1704 21.1212 56.7393 -4.9105 53.2104 -6.1693 6.1005 37.7941 -21.8239 0.0000 -8.7961 53.6555 -24.3972 36.4295 180.0000 -88.3057 154.4300 30.0473 15.3347 0.0000 9.2680 -0.0000 6.4753 -38.1081 -8.7288 40.1678 -180.0000 -70.0095 112.0253 32.6301 -3.5933 0.0000
 60.5457 -5.6322 29.4139 -8.0285 -9.8229 -56.7522 41.1685 -18.4172 54.8409 -0.0000 44.2200 0.0000 0.0000 31.6041 -12.9682 0.0000 -19.7252 -0.0000 -16.3094 -14.4962 -18.5562 -0.0000 76.5489 0.0000 0.0000 -21.6426 -13.5913 0.0000 -29.3898 -0.0000 58.4842 -3.7979 34.4826 -1.4708 9.4094 20.3633 57.0873 -4.8787 53.0724 -5.8529 5.9270 38.1175 -21.9410 0.0000 -8.9497 54.3680 -23.3020 36.4444 180.0000 -89.3818 151.8050 30.0166 15.8923 0.0000 9.1649 -0.0000 6.3478 -38.2978 -8.2234 40.7135 -180.0000 -70.2643 113.5088 31.8285 -3.0486 0.0000
 60.8546 -5.6283 29.2838 -8.3451 -9.8559 -56.7547 41.2870 -18.7513 53.9970 -0.0000 45.8308 0.0000 0.0000 29.3913 -12.0382 0.0000 -20.3783 -0.0000 -16.6655 -14.1897 -18.8052 -0.0000 77.0707 0.0000 0.0000 -21.9011 -14.6437 0.0000 -29.0720 -0.0000 58.8007 -3.7652 34.3384 -1.5326 9.7288 19.4705 57.4401 -4.8389 52.9301 -5.3333 5.6186 38.2946 -21.8691 0.0000 -9.2307 55.1811 -21.9885 36.1778 180.0000 -89.9091 149.4826 30.1913 16.4885 0.0000 8.9820 -0.0000 6.1245 -38.3093 -8.2780 41.6093 -180.0000 -70.5227 116.6574 32.1618 -3.1145 -0.0000
 61.1385 -5.6199 29.1668 -8.6695 -9.8444 -56.6634 41.4464 -19.1670 53.1183 -0.0000 47.3507 0.0000 0.0000 27.5962 -11.2334 0.0000 -21.0440 -0.0000 -16.9745 -13.8783 -19.1941 -0.0000 77.5368 0.0000 0.0000 -22.1100 -15.7151 0.0000 -28.6662 -0.0000 59.1101 -3.7263 34.2007 -1.5497 10.0730 18.5526 57.8012 -4.7919 52.7908 -4.6698 5.2016 38.1891 -21.7292 0.0000 -9.5967 56.0984 -20.6938 35.7197 0.0000 -89.8654 -32.3182 30.5459 17.1755 -0.0000 8.8447 -0.0000 5.9417 -38.3555 -8.5146 42.5315 180.0000 -70.5867 120.1048 33.1070 -3.4180 0.0000
 61.3987 -5.6085 29.0637 -8.9867 -9.7774 -56.5399 41.6692 -19.6289 52.2530 -0.0000 48.7929 0.0000 0.0000 26.1638 -10.5917 0.0000 -21.7049 -0.0000 -17.2275 -13.5888 -19.6444 -0.0000 77.9338 0.0000 -0.0000 -22.2584 -16.7265 0.0000 -28.2428 0.0000 59.4109 -3.6828 34.0733 -1.5120 10.4211 17.6981 58.1646 -4.7446 52.6579 -3.9642 4.7343 37.9104 -21.5160 0.0000 -9.9370 56.9904 -19.6243 35.1346 0.0000 -89.7434 -33.5581 31.0574 17.7401 0.0000 8.7718 -0.0000 5.8633 -38.4941 -8.7742 43.3375 180.0000 -70.4348 122.7363 34.1785 -3.8942 0.0000
 61.6395 -5.5962 28.9734 -9.2651 -9.6501 -56.4279 41.9721 -20.1186 51.4869 -0.0000 50.1902 0.0000 0.0000 25.0330 -10.1077 0.0000 -22.3582 -0.0000 -17.4492 -13.3505 -20.1089 -0.0000 78.2599 0.0000 0.0000 -22.3399 -17.5923 0.0000 -27.8751 0.0000 59.7022 -3.6379 33.9607 -1.4230 10.7288 17.0214 58.5249 -4.7027 52.5362 -3.3029 4.2823 37.5006 -21.2705 0.0000 -10.2772 57.8086 -18.8150 34.5257 0.0000 -89.6162 -34.3397 31.5530 18.1322 0.0000 8.7878 -0.0000 5.8694 -38.7471 -8.9434 43.9017 180.0000 -70.0749 124.0661 35.1123 -4.2136 0.0000
 61.8677 -5.5838 28.8957 -9.4369 -9.5197 -56.3887 42.2896 -20.5520 50.9708 -0.0000 51.5053 0.0000 0.0000 24.0312 -9.7920 0.0000 -22.6187 -0.0000 -17.7402 -13.2346 -20.5303 -0.0000 78.5683 0.0000 -0.0000 -22.3096 -18.3107 0.0000 -27.6718 -0.0000 59.9656 -3.5912 33.8654 -1.4007 10.9733 16.6362 58.8771 -4.6707 52.4280 -2.7091 3.8695 37.0356 -21.2175 0.0000 -11.1186 59.0675 -17.5509 34.2068 0.0000 -89.6824 -34.3821 32.1239 18.7758 0.0000 8.9371 -0.0000 5.9246 -39.1707 -9.0691 44.1902 180.0000 -69.5602 124.0516 35.5024 -4.2177 0.0000
 62.0836 -5.5750 28.8321 -9.5497 -9.3922 -56.4617 42.6502 -20.8623 50.7663 -0.0000 52.7657 0.0000 0.0000 23.2037 -9.5878 0.0000 -22.9265 -0.0000 -18.0960 -13.1421 -20.8935 -0.0000 78.7783 0.0000 0.0000 -22.1897 -18.7354 0.0000 -27.6797 -0.0000 60.2432 -3.5567 33.7828 -1.3583 11.1486 16.5614 59.2148 -4.6518 52.3380 -2.3034 3.6132 36.5968 -20.8069 0.0000 -11.1515 59.2523 -17.8017 33.6211 0.0000 -89.1180 -35.1265 32.6818 18.8205 0.0000 9.0337 -0.0000 5.9639 -39.4394 -8.9174 44.1900 -180.0000 -68.9451 123.4293 35.7932 -3.5613 0.0000
 62.2914 -5.5601 28.7718 -9.6665 -9.1347 -56.4034 43.0670 -21.3175 50.4811 -0.0000 53.9421 0.0000 0.0000 22.4748 -9.4113 0.0000 -23.3653 -0.0000 -18.4069 -13.0413 -21.3886 -0.0000 78.9503 0.0000 0.0000 -22.0280 -18.9403 0.0000 -27.6747 0.0000 60.4762 -3.5069 33.7196 -1.1929 11.3502 16.4277 59.5327 -4.6438 52.2688 -2.0440 3.4096 36.2982 -20.5841 0.0000 -11.4716 59.7122 -17.8937 33.5870 0.0000 -88.5992 -35.7609 32.7021 18.8738 0.0000 9.3204 0.0000 6.1006 -40.0090 -8.8384 43.9648 -180.0000 -68.3242 122.2337 35.6548 -2.8221 0.0000
 62.4922 -5.5614 28.7282 -9.7192 -8.9864 -56.5366 43.4866 -21.4238 50.7273 -0.0000 54.9938 0.0000 0.0000 21.8171 -9.4804 0.0000 -23.5370 -0.0000 -18.8308 -12.9016 -21.7052 -0.0000 79.0038 0.0000 0.0000 -21.7082 -18.8826 0.0000 -28.1870 -0.0000 60.7322 -3.4924 33.6643 -1.1117 11.4030 16.6133 59.8358 -4.6486 52.2171 -1.9031 3.4766 36.1513 -20.3255 0.0000 -11.5858 59.8626 -18.2545 33.5352 0.0000 -87.9790 -36.3234 32.7602 18.7334 0.0000 9.4007 -0.0000 6.0725 -40.1300 -8.6158 43.7842 -180.0000 -67.9729 121.3112 35.7071 -1.9715 0.0000
 62.6759 -5.5528 28.6780 -9.7247 -8.6355 -56.6480 44.1002 -21.6597 51.0921 -0.0000 56.0238 0.0000 0.0000 21.1332 -9.5025 0.0000 -23.6886 -0.0000 -19.1428 -12.9341 -22.0732 -0.0000 79.0902 0.0000 0.0000 -21.5017 -18.6610 0.0000 -28.3921 -0.0000 60.9360 -3.4365 33.6297 -0.8954 11.5243 16.8823 60.1165 -4.6623 52.1825 -1.9254 3.4317 36.0458 -20.1247 0.0000 -11.7298 59.9071 -18.9887 33.9249 0.0000 -87.2286 -36.9789 32.5629 18.4725 -0.0000 9.6842 -0.0000 6.0039 -40.6693 -8.6090 43.4115 -180.0000 -67.6487 120.6827 35.6040 -1.2405 0.0000
 62.8315 -5.5605 28.6203 -9.5761 -7.9024 -56.8298 45.2876 -21.9519 52.1496 -0.0000 57.1097 0.0000 0.0000 20.4053 -9.8170 0.0000 -23.3425 -0.0000 -19.1654 -13.2788 -22.4371 -0.0000 79.0925 0.0000 0.0000 -21.0318 -18.3658 0.0000 -29.4076 -0.0000 61.1662 -3.4116 33.5982 -0.3823 11.1700 17.2127 60.3857 -4.6870 52.1596 -2.0118 3.5662 36.1584 -20.0365 0.0000 -11.7198 59.9583 -19.6677 34.3325 0.0000 -86.6377 -37.1537 32.4109 18.2431 0.0000 9.7075 -0.0000 5.6676 -40.7401 -8.7664 43.3599 -180.0000 -67.7516 120.3529 35.7163 -0.8096 0.0000
 63.0124 -5.5619 28.5945 -9.5938 -7.7745 -56.9366 45.6694 -21.8503 52.6897 -0.0000 57.8714 0.0000 0.0000 19.8583 -10.1080 0.0000 -23.5268 -0.0000 -19.6847 -13.0373 -22.7643 -0.0000 79.0374 0.0000 -0.0000 -20.8077 -17.7644 0.0000 -29.7434 -0.0000 61.3931 -3.4161 33.5760 -0.2807 11.1193 17.4214 60.6364 -4.7132 52.1516 -2.0781 3.9185 36.3494 -19.9895 0.0000 -11.8934 60.0186 -19.9364 34.9729 0.0000 -86.2600 -37.0845 32.0474 18.1200 -0.0000 9.8386 -0.0000 5.6378 -40.8989 -8.4276 43.2420 -180.0000 -67.7593 120.3159 35.6817 -0.3599 0.0000
 63.1803 -5.5647 28.5682 -9.5601 -7.5769 -57.0388 46.1522 -21.7453 53.4053 -0.0000 58.5924 0.0000 0.0000 19.2318 -10.5041 0.0000 -23.1513 -0.0000 -20.1503 -12.8664 -23.0862 -0.0000 78.9581 0.0000 0.0000 -20.6050 -17.1418 0.0000 -30.1306 -0.0000 61.6038 -3.3929 33.5688 -0.1284 11.1286 17.6669 60.8766 -4.7460 52.1470 -2.1992 4.0982 36.5265 -19.9520 0.0000 -11.8815 59.8127 -20.6588 35.7585 0.0000 -85.8997 -36.8844 31.6121 17.7570 0.0000 10.0549 -0.0000 5.4526 -41.2451 -8.2787 43.0286 -180.0000 -67.8661 120.1421 36.0485 0.1130 0.0000
